<?xml version="1.0" standalone="no"?>
<!DOCTYPE svg PUBLIC "-//W3C//DTD SVG 20010904//EN"
 "http://www.w3.org/TR/2001/REC-SVG-20010904/DTD/svg10.dtd">
<svg version="1.0" xmlns="http://www.w3.org/2000/svg"
 width="900.000000pt" height="900.000000pt" viewBox="0 0 900.000000 900.000000"
 preserveAspectRatio="xMidYMid meet">

<g transform="translate(0.000000,900.000000) scale(0.100000,-0.100000)"
fill="#000000" stroke="none">
<path d="M5715 8988 c-2 -7 -6 -170 -8 -363 -4 -328 -5 -355 -26 -425 -48
-156 -80 -196 -306 -379 -537 -434 -1173 -1110 -1492 -1586 -313 -468 -498
-837 -654 -1312 -30 -89 -60 -164 -66 -167 -7 -3 -12 -2 -12 2 4 22 -3 32 -22
32 -12 0 -114 48 -228 106 -275 140 -339 148 -409 50 -50 -69 -65 -131 -59
-244 2 -58 12 -119 24 -152 38 -110 133 -210 291 -306 66 -39 170 -84 198 -84
27 0 14 18 -21 30 -93 31 -291 187 -351 277 -94 141 -98 354 -9 449 31 33 39
36 71 31 20 -3 82 -27 137 -53 56 -26 162 -67 235 -91 72 -25 132 -49 132 -54
0 -14 -122 -10 -176 6 -65 20 -62 20 -79 -22 -8 -21 -28 -45 -43 -54 -25 -14
-122 -128 -122 -143 0 -2 6 -11 13 -18 6 -7 30 -36 52 -63 22 -28 43 -51 47
-53 5 -2 8 -26 8 -53 0 -45 2 -49 24 -49 34 0 89 -40 108 -80 16 -32 16 -41 4
-95 -58 -249 -90 -648 -75 -925 7 -138 26 -310 35 -319 9 -10 11 8 4 69 -19
180 -7 640 21 809 40 246 89 462 104 458 6 -2 25 -29 44 -61 29 -48 32 -61 23
-81 -6 -13 -14 -70 -17 -127 -4 -57 -16 -155 -27 -218 -27 -158 -19 -197 63
-284 62 -66 72 -96 41 -118 -43 -30 -58 -104 -28 -137 11 -12 16 -38 16 -82 1
-65 21 -141 40 -147 19 -7 10 -37 -20 -72 -29 -34 -39 -83 -21 -95 6 -3 19 14
30 37 21 43 21 43 15 8 -4 -19 -10 -41 -15 -50 -4 -8 -10 -26 -13 -40 -3 -14
-26 -52 -50 -84 -25 -32 -53 -82 -63 -112 -23 -75 -24 -75 -73 41 -8 18 -15
25 -17 17 -8 -21 98 -220 144 -272 25 -27 69 -60 109 -81 65 -33 72 -34 174
-33 94 0 113 4 188 33 200 80 464 317 747 672 172 217 251 334 341 500 37 68
83 153 103 189 l36 65 70 -1 c39 0 142 -2 230 -4 173 -5 194 -1 326 52 147 59
215 137 226 258 8 81 -3 125 -40 167 -51 58 -80 65 -292 73 -104 4 -202 12
-217 18 l-27 11 33 78 c185 439 342 934 436 1373 72 339 147 892 191 1405 17
205 39 408 44 413 11 12 107 23 290 35 111 8 210 19 223 26 47 25 27 73 -102
230 -42 51 -93 123 -113 159 -35 63 -37 69 -44 201 -8 150 -21 217 -74 399
-38 133 -77 236 -131 350 l-34 72 -55 0 c-36 0 -57 -5 -60 -12z m145 -230 c13
-40 27 -78 31 -84 13 -16 67 -197 93 -309 26 -110 42 -275 27 -275 -21 0 -68
125 -75 200 -15 163 -28 237 -69 383 -15 53 -28 25 -16 -36 49 -263 61 -384
56 -547 -6 -171 -29 -319 -67 -429 -11 -30 -18 -57 -15 -59 4 -4 17 23 44 92
12 30 6 29 103 11 34 -7 41 -4 68 25 36 38 37 52 8 93 -15 21 -27 60 -35 112
-21 141 -14 173 20 90 29 -69 84 -149 191 -275 53 -62 95 -119 93 -124 -5 -15
-53 -23 -212 -36 -159 -13 -286 -35 -295 -51 -7 -11 -25 -109 -36 -196 -3 -29
-9 -53 -13 -53 -4 0 -22 11 -41 25 -19 14 -39 25 -44 25 -6 0 -19 14 -28 30
-9 17 -25 30 -35 30 -10 0 -35 5 -55 11 -49 13 -49 31 1 111 48 76 63 134 49
186 -13 49 -26 64 -47 53 -9 -4 -39 -11 -68 -14 l-52 -6 81 72 c45 40 96 84
114 100 65 54 125 191 149 337 19 113 36 535 24 568 -5 13 -9 31 -9 40 1 34
37 -25 60 -100z m-543 -1305 c-8 -15 -24 -71 -36 -123 -24 -103 -47 -183 -121
-420 -27 -85 -61 -200 -75 -255 -48 -181 -100 -304 -206 -487 -72 -124 -244
-363 -274 -381 -17 -9 -15 -2 89 308 106 317 160 440 259 589 83 124 172 298
206 401 64 196 113 329 136 366 29 45 45 47 22 2z m-237 -43 c0 -16 91 -110
106 -110 18 0 18 -10 -6 -81 -45 -131 -49 -139 -77 -128 -13 5 -57 10 -97 12
l-73 2 16 25 c8 14 32 44 53 68 41 45 41 46 1 99 l-24 33 42 45 c41 44 59 55
59 35z m-160 -710 c0 -5 -4 -10 -10 -10 -5 0 -10 5 -10 10 0 6 5 10 10 10 6 0
10 -4 10 -10z m-530 -14 c0 -2 -7 -9 -15 -16 -13 -11 -14 -10 -9 4 5 14 24 23
24 12z m228 -13 c-10 -2 -26 -2 -35 0 -10 3 -2 5 17 5 19 0 27 -2 18 -5z
m-268 -27 c0 -2 -7 -7 -16 -10 -8 -3 -12 -2 -9 4 6 10 25 14 25 6z m843 -13
c51 -26 119 -81 137 -111 9 -15 27 -57 39 -93 11 -36 28 -75 37 -87 23 -34 91
-64 156 -69 44 -5 58 -10 58 -22 0 -9 -16 -105 -37 -214 l-37 -199 -26 30
c-28 33 -59 52 -87 52 -15 0 -18 9 -19 63 0 80 -23 124 -103 200 -34 32 -61
63 -61 70 0 7 9 37 19 67 47 134 39 166 -52 225 -53 34 -62 45 -65 73 -4 37
-2 38 41 15z m-1094 -594 c64 -4 160 -9 213 -9 107 0 140 -10 157 -47 26 -57
19 -65 -95 -108 -97 -35 -119 -40 -233 -45 -140 -7 -206 -28 -198 -62 4 -13
-2 -20 -18 -24 -28 -7 -212 0 -221 9 -3 3 14 39 39 79 25 40 71 115 102 165
l57 92 40 -20 c29 -15 73 -23 157 -30z m1179 -1024 c34 0 41 -2 36 -15 -3 -8
-30 -80 -59 -160 -96 -261 -166 -433 -235 -577 l-68 -142 -59 6 c-32 3 -82 14
-112 25 -30 10 -64 18 -76 18 -25 0 -62 -33 -124 -107 -23 -29 -47 -53 -52
-53 -23 0 -60 110 -64 187 -6 104 -12 131 -41 175 -30 48 -129 95 -279 136
-253 68 -354 84 -545 87 l-145 1 0 79 0 78 80 -2 c46 -1 104 -10 136 -21 121
-41 226 -47 354 -18 67 14 95 36 114 88 21 56 52 68 132 51 49 -10 64 -9 119
8 34 11 68 17 76 14 7 -2 22 -20 33 -39 27 -45 61 -57 139 -50 37 4 70 2 82
-4 28 -15 67 -2 91 31 16 23 20 45 21 108 1 44 4 85 8 91 4 7 29 -5 67 -34 80
-58 115 -76 153 -76 46 0 89 26 96 58 13 62 22 73 51 65 16 -5 47 -8 71 -8z
m-53 -819 c22 -3 90 -10 151 -16 164 -13 197 -24 223 -70 42 -75 18 -191 -51
-243 -47 -37 -172 -94 -243 -112 -59 -14 -444 -40 -454 -29 -8 8 12 36 40 55
20 15 35 16 84 11 52 -7 65 -5 97 15 28 17 53 23 96 23 70 0 97 17 122 75 10
24 28 49 39 55 36 19 44 47 24 80 -13 22 -44 44 -112 76 -111 54 -162 90 -155
109 5 12 14 11 52 -4 26 -10 65 -21 87 -25z m-535 -607 c0 -17 -118 -236 -177
-327 -184 -287 -515 -674 -704 -823 -143 -114 -306 -189 -409 -189 -74 0 -220
60 -220 91 0 5 8 12 18 15 9 3 37 14 61 24 32 13 52 15 74 9 32 -9 86 8 119
38 27 24 33 94 13 147 -10 25 -15 51 -12 59 4 10 34 16 109 20 138 9 251 37
288 72 26 25 28 32 32 128 4 110 12 132 78 217 43 56 44 56 163 165 54 49 105
101 113 117 8 15 40 45 72 67 31 21 81 59 109 84 42 36 65 48 110 56 32 6 78
18 103 25 57 18 60 18 60 5z"/>
<path d="M5832 8730 c0 -19 2 -27 5 -17 2 9 2 25 0 35 -3 9 -5 1 -5 -18z"/>
<path d="M4140 2932 c-18 -14 -22 -25 -16 -45 9 -37 38 -35 70 4 21 24 24 34
15 45 -16 19 -42 18 -69 -4z"/>
<path d="M4254 7668 c-17 -18 -48 -55 -70 -82 l-39 -49 60 6 c33 3 107 9 165
12 149 9 200 29 158 62 -15 12 -214 83 -232 83 -6 0 -26 -15 -42 -32z"/>
<path d="M3969 7678 c-18 -19 -264 -180 -307 -202 -19 -10 -31 -20 -28 -23 3
-4 69 26 146 66 l141 72 48 -16 c55 -18 86 -47 78 -70 -8 -20 -80 -70 -173
-121 -86 -47 -120 -75 -59 -49 22 10 73 31 114 49 133 56 158 103 105 196 -15
25 -32 60 -38 79 -11 29 -14 32 -27 19z"/>
<path d="M7420 7462 c-19 -14 -48 -42 -65 -61 l-30 -36 50 41 c47 39 93 85 84
83 -2 0 -20 -12 -39 -27z"/>
<path d="M3444 7414 c-22 -8 -56 -27 -74 -43 -34 -28 -34 -29 -20 -56 15 -29
70 -58 98 -53 21 4 112 124 112 149 0 15 -7 19 -37 18 -21 0 -56 -7 -79 -15z"/>
<path d="M7250 7353 c0 -9 -8 -25 -17 -36 -17 -18 -17 -18 14 -1 21 13 29 22
22 30 -5 6 -6 14 -2 17 3 4 1 7 -5 7 -7 0 -12 -8 -12 -17z"/>
<path d="M3120 7314 c-207 -61 -367 -126 -629 -255 -378 -186 -494 -255 -676
-399 -60 -49 -123 -103 -139 -121 -89 -100 -163 -202 -191 -264 -26 -55 -40
-73 -64 -84 -18 -7 -50 -38 -73 -70 -100 -137 -153 -203 -172 -213 -12 -6 -22
-11 -23 -10 -16 11 -56 -43 -133 -176 -122 -213 -167 -380 -235 -882 -17 -126
-40 -243 -49 -259 -4 -6 -30 -11 -57 -11 l-51 0 6 38 c4 20 11 82 16 137 12
114 27 216 37 241 4 11 3 15 -5 11 -6 -4 -24 -52 -42 -107 -17 -55 -36 -100
-42 -100 -6 0 -8 11 -5 28 16 86 50 362 45 368 -14 13 -28 -9 -28 -44 0 -20
-7 -73 -15 -117 -8 -44 -31 -186 -51 -315 -32 -209 -36 -257 -37 -440 -1 -205
6 -262 44 -390 13 -41 14 -21 19 231 3 190 9 280 17 290 6 8 22 41 34 74 24
65 32 75 65 75 20 0 21 -5 22 -105 1 -58 9 -192 17 -298 9 -105 20 -244 25
-307 19 -245 74 -492 163 -726 51 -136 87 -251 87 -283 0 -17 -3 -19 -17 -12
-10 5 -33 14 -51 20 -30 9 -31 9 -22 -8 11 -21 60 -41 99 -41 15 0 37 -7 49
-16 26 -18 75 -110 67 -124 -4 -6 -21 -10 -38 -11 -18 -1 -43 -4 -57 -8 -25
-8 -25 -8 12 -30 42 -26 68 -67 128 -204 30 -69 60 -116 97 -158 56 -63 58
-66 45 -87 -15 -22 -108 57 -164 138 -9 14 -17 21 -17 15 -1 -37 109 -144 187
-180 46 -23 41 -39 -10 -31 -24 3 -61 8 -83 11 l-40 5 42 -16 c48 -18 71 -48
102 -139 15 -43 20 -72 15 -102 -5 -36 -4 -43 10 -43 9 0 27 12 40 27 l24 27
37 -19 c49 -27 98 -82 90 -104 -12 -31 -10 -35 30 -41 43 -6 155 -65 155 -81
0 -18 -30 -21 -76 -10 -26 7 -48 10 -50 8 -3 -2 26 -35 63 -73 38 -38 83 -86
101 -107 18 -20 41 -37 51 -37 20 0 51 30 51 48 0 17 15 15 30 -3 7 -8 18 -15
25 -15 16 0 37 -25 28 -33 -3 -4 -17 0 -31 9 -13 8 -27 12 -30 9 -4 -4 1 -12
12 -19 10 -6 36 -27 56 -46 21 -19 52 -46 69 -58 17 -13 35 -39 40 -58 5 -18
19 -47 31 -64 30 -43 23 -66 -20 -63 l-35 2 25 -17 c14 -9 38 -30 55 -46 110
-105 341 -251 535 -339 129 -58 471 -179 480 -170 3 3 -1 8 -8 10 -19 7 -62
56 -62 70 0 14 36 5 102 -27 34 -17 51 -33 64 -62 16 -36 19 -38 63 -38 44 0
78 17 186 94 9 7 38 -2 92 -27 43 -20 112 -48 153 -62 113 -39 231 -87 268
-107 18 -10 44 -18 59 -18 25 0 25 1 10 18 -19 21 -22 42 -7 42 5 0 29 -5 52
-11 34 -9 66 -8 155 5 144 21 165 21 161 -1 -3 -18 -126 -73 -165 -73 -13 0
-22 -4 -19 -8 8 -13 36 -8 104 19 35 14 57 11 139 -16 42 -14 90 -25 106 -23
50 5 40 -15 -19 -42 -55 -24 -55 -25 -28 -34 18 -6 62 -4 125 4 l98 13 20 -24
c18 -22 21 -23 53 -11 32 14 121 38 461 129 137 36 249 76 394 140 10 4 11 -3
7 -26 -6 -28 -4 -31 12 -25 11 4 26 13 34 20 8 7 99 51 202 98 215 98 249 118
311 181 25 25 54 45 65 45 14 0 46 29 92 83 160 184 157 182 225 150 l35 -17
38 35 c20 20 62 55 92 80 30 24 100 84 155 133 55 49 133 114 172 144 61 45
75 61 84 96 18 72 21 80 47 131 40 80 104 182 283 455 92 140 194 309 227 375
138 275 224 528 280 825 29 153 31 163 42 307 20 248 -14 376 -128 488 -96 95
-209 134 -387 135 -70 0 -637 -46 -678 -55 -12 -2 -112 -12 -222 -20 -235 -19
-254 -22 -450 -87 -82 -27 -172 -54 -199 -60 -41 -9 -46 -12 -31 -20 19 -11
115 -7 275 12 52 7 131 10 175 8 72 -3 90 -8 165 -46 47 -24 118 -63 159 -88
40 -25 75 -43 77 -42 2 2 -11 18 -27 36 -17 18 -28 39 -25 47 6 18 91 23 165
11 37 -6 70 -5 108 4 29 7 56 10 60 6 4 -4 2 -24 -4 -46 -5 -22 -8 -42 -5 -45
3 -2 38 -2 79 2 66 5 77 4 103 -15 39 -30 46 -28 76 18 l26 39 42 -32 c54 -42
55 -44 45 -80 -11 -39 -3 -48 12 -13 7 14 16 26 20 26 15 0 61 -90 66 -130 5
-36 2 -43 -31 -75 -21 -19 -33 -35 -28 -35 6 0 8 -9 5 -21 -4 -15 -11 -19 -26
-15 -28 7 -46 -20 -47 -66 0 -35 -31 -88 -50 -88 -4 0 -10 19 -13 41 -7 50
-32 82 -47 60 -4 -8 -14 -51 -20 -96 -17 -118 -5 -153 69 -211 52 -40 60 -51
65 -89 6 -39 2 -115 -10 -173 -4 -18 -9 -21 -29 -16 -14 3 -25 5 -26 3 0 -2
-3 -31 -5 -64 -6 -79 -5 -79 -58 -105 l-46 -22 0 -74 c0 -84 -10 -110 -86
-229 -48 -76 -82 -118 -269 -334 -44 -50 -98 -122 -120 -159 -40 -66 -40 -67
-175 -137 -146 -77 -240 -133 -240 -146 0 -4 10 -15 22 -23 20 -14 21 -18 7
-31 -24 -24 -313 -133 -448 -170 -221 -58 -397 -66 -467 -20 -31 20 -31 20
-49 -16 -18 -34 -13 -48 9 -30 18 15 58 11 63 -5 6 -19 -97 -72 -175 -91 -72
-17 -73 -17 -160 7 -91 25 -195 34 -189 15 2 -5 32 -15 66 -21 98 -18 95 -21
-49 -49 -54 -11 -117 -33 -171 -60 -68 -33 -102 -44 -161 -49 -81 -8 -128 -1
-128 19 0 9 -11 12 -32 10 -175 -18 -249 -17 -403 5 -187 25 -354 59 -474 96
-126 38 -432 195 -601 307 -206 138 -482 382 -556 494 -23 35 -48 60 -70 69
-19 8 -34 20 -34 28 0 17 -77 120 -178 239 -84 97 -130 165 -143 207 -6 20 -7
16 -8 -22 -1 -27 -5 -48 -10 -48 -16 0 -89 99 -143 193 -47 83 -50 92 -40 122
29 77 11 117 -60 140 -80 26 -98 40 -98 78 0 39 -30 143 -89 306 -54 149 -54
194 0 140 25 -25 39 -17 16 9 -10 10 -17 22 -17 26 0 5 -14 24 -31 44 -18 20
-45 65 -62 100 -25 54 -29 72 -25 125 3 38 0 74 -8 93 -26 63 -55 233 -63 369
-9 149 0 323 25 465 8 47 14 97 14 111 0 75 169 638 224 748 32 62 32 65 1 57
-14 -4 -25 -2 -25 3 0 17 156 284 225 387 204 299 439 558 943 1035 121 116
156 161 86 114 -20 -14 -44 -25 -52 -25 -15 0 102 80 226 154 34 21 62 40 62
42 0 17 -94 -14 -197 -65 -67 -33 -139 -67 -160 -76 -35 -14 -36 -14 -18 1 26
21 292 150 328 159 15 4 30 11 33 16 3 5 4 8 2 8 -2 -1 -23 -7 -48 -15z m-428
-242 c-13 -9 -57 -44 -99 -77 -101 -81 -165 -124 -183 -124 -8 -1 10 15 40 36
30 20 75 53 100 73 49 40 151 110 160 110 3 -1 -5 -9 -18 -18z m-2102 -2302
c0 -5 -5 -10 -11 -10 -5 0 -7 5 -4 10 3 6 8 10 11 10 2 0 4 -4 4 -10z m1517
-3437 c18 -19 46 -73 40 -79 -1 -2 -29 14 -60 36 -32 21 -63 40 -69 42 -7 3
-8 10 -3 17 10 18 68 8 92 -16z"/>
<path d="M7010 7120 c0 -5 5 -10 10 -10 6 0 10 5 10 10 0 6 -4 10 -10 10 -5 0
-10 -4 -10 -10z"/>
<path d="M6998 7092 c-4 -12 -115 -92 -127 -92 -5 0 -19 15 -30 34 -43 68
-143 75 -278 19 -108 -45 -141 -68 -220 -156 -69 -75 -77 -93 -38 -83 14 4 25
4 25 1 0 -3 -15 -29 -33 -58 -42 -65 -51 -88 -33 -81 24 9 29 -17 7 -40 -12
-12 -21 -26 -21 -30 0 -5 -11 -19 -25 -32 -31 -28 -34 -50 -6 -34 30 15 30 13
9 -30 -16 -32 -18 -43 -8 -55 10 -12 4 -27 -34 -84 -26 -38 -46 -73 -45 -77 3
-20 -3 -31 -36 -69 -19 -22 -37 -48 -41 -57 -3 -10 -10 -18 -15 -18 -5 0 -9
-5 -9 -11 0 -6 4 -9 9 -7 9 3 111 125 210 252 41 52 74 68 50 25 -18 -34 -4
-31 34 6 34 33 37 34 47 16 5 -11 10 -27 10 -35 0 -9 6 -13 14 -10 8 3 17 1
20 -5 4 -5 -3 -12 -14 -16 -13 -4 -20 -15 -20 -31 0 -13 -4 -24 -10 -24 -5 0
-10 -5 -10 -12 0 -6 8 -4 19 6 10 10 22 13 25 8 3 -5 -3 -17 -14 -27 -11 -10
-20 -27 -20 -37 0 -11 -9 -32 -21 -46 -40 -53 -69 -103 -69 -121 0 -10 -5 -32
-11 -50 -6 -18 -9 -34 -7 -37 3 -2 23 11 44 31 21 19 42 35 47 35 10 0 9 -18
-3 -25 -5 -3 2 -16 17 -29 l26 -23 -17 -64 c-23 -84 -57 -182 -68 -194 -13
-15 -9 -42 8 -49 22 -8 20 -10 44 29 12 19 28 35 36 35 18 0 18 -5 -2 -35 -9
-14 -23 -25 -30 -25 -8 0 -14 -4 -14 -10 0 -16 27 -12 34 5 3 8 10 15 16 15 6
0 18 7 26 15 21 21 54 19 55 -2 0 -11 3 -13 6 -5 2 6 20 12 38 12 18 0 53 9
78 19 33 14 63 18 119 16 42 -1 80 -5 87 -9 14 -9 71 24 71 41 0 17 10 16 53
-2 53 -22 123 -18 218 11 46 14 95 28 109 31 29 6 60 41 53 59 -2 7 3 24 12
37 21 33 8 41 -55 32 -57 -8 -64 4 -30 48 11 14 20 28 20 32 0 11 -91 -3 -156
-25 -65 -21 -89 -16 -53 11 30 23 13 24 -31 3 -30 -15 -36 -15 -92 2 -33 10
-62 24 -65 31 -3 7 -15 13 -26 13 -21 0 -21 0 1 16 12 8 27 12 32 9 6 -3 10
-2 10 3 0 5 12 14 26 20 14 7 22 17 19 22 -3 6 5 10 19 10 14 0 26 4 26 10 0
5 -13 7 -30 4 -24 -5 -30 -3 -30 10 0 9 7 19 15 22 8 3 17 13 20 22 3 10 23
30 46 46 22 15 38 30 35 33 -2 3 4 20 14 39 11 18 17 41 14 49 -4 10 -2 13 8
10 8 -3 23 4 34 16 l19 22 -27 -17 c-29 -19 -43 -9 -33 23 6 19 161 164 205
192 14 9 46 19 73 23 43 7 67 26 32 26 -30 0 -13 35 45 92 33 32 64 58 70 58
5 0 1 9 -10 20 -21 21 -55 26 -79 11 -9 -6 -24 -5 -39 0 -27 10 -52 1 -31 -12
11 -7 11 -11 1 -21 -10 -10 -14 -10 -22 1 -6 11 -23 2 -74 -44 -36 -31 -66
-61 -66 -66 0 -5 -5 -9 -11 -9 -15 0 -2 38 29 83 21 32 24 42 14 57 -16 26 -3
57 47 109 23 23 41 47 41 52 0 6 4 7 10 4 6 -3 7 1 4 9 -4 9 1 18 10 22 9 3
16 10 16 15 0 15 -22 10 -35 -7 -7 -11 -31 -18 -66 -21 -42 -3 -50 -2 -36 7
17 11 24 40 9 40 -4 0 -14 -6 -20 -12 -10 -10 -15 -10 -22 2 -8 13 -14 12 -42
-4 -18 -11 -49 -32 -69 -48 -42 -32 -49 -34 -49 -14 0 8 9 17 19 21 32 10 36
43 9 65 -25 21 -35 24 -40 12z m206 -250 c7 -11 -4 -23 -41 -49 -23 -17 -34
-19 -39 -11 -4 7 -2 14 5 16 7 2 23 15 34 28 22 25 33 29 41 16z m116 -41 c0
-12 -20 -25 -27 -18 -7 7 6 27 18 27 5 0 9 -4 9 -9z m-274 -443 c3 -32 2 -38
-5 -23 -8 17 -10 18 -10 3 -1 -28 -21 -21 -21 7 0 16 4 23 13 19 8 -3 14 2 14
11 0 9 -6 14 -14 11 -7 -3 -13 -1 -13 3 0 10 22 21 29 15 2 -2 5 -23 7 -46z"/>
<path d="M7378 7023 c7 -3 16 -2 19 1 4 3 -2 6 -13 5 -11 0 -14 -3 -6 -6z"/>
<path d="M6227 6629 c-8 -28 -3 -34 11 -16 6 7 7 19 3 26 -6 9 -10 6 -14 -10z"/>
<path d="M6187 6423 c-4 -3 -7 -11 -7 -17 0 -6 5 -5 12 2 6 6 9 14 7 17 -3 3
-9 2 -12 -2z"/>
<path d="M7220 6420 c0 -13 20 -13 40 0 12 8 9 10 -12 10 -16 0 -28 -4 -28
-10z"/>
<path d="M7552 6319 c-24 -17 -41 -33 -39 -36 6 -6 64 23 96 48 42 34 -8 22
-57 -12z"/>
<path d="M7218 6198 c-40 -11 -48 -27 -23 -48 14 -12 12 -17 -17 -47 l-33 -34
47 20 c26 11 62 18 80 17 18 -2 25 -1 16 1 -33 8 -21 41 20 52 20 6 42 11 48
11 5 0 19 7 30 15 18 14 16 15 -21 14 -22 -1 -56 1 -75 4 -19 3 -52 1 -72 -5z"/>
<path d="M6251 6037 c-12 -19 -20 -41 -18 -48 2 -8 2 -11 0 -6 -9 14 -23 -5
-23 -30 l0 -26 20 26 c11 14 20 34 20 44 0 10 7 29 16 41 9 13 14 25 11 28 -3
3 -14 -10 -26 -29z"/>
<path d="M7617 5869 c-60 -43 -66 -49 -43 -49 13 0 118 89 106 90 -3 0 -31
-18 -63 -41z"/>
<path d="M7528 5863 c-10 -2 -18 -8 -18 -13 0 -10 38 -1 46 11 5 9 1 10 -28 2z"/>
<path d="M7397 5835 c-15 -14 -24 -25 -19 -25 9 0 52 37 52 45 0 8 -4 6 -33
-20z"/>
<path d="M7445 5813 c-27 -19 -54 -39 -60 -45 -14 -15 87 43 104 60 27 26 5
19 -44 -15z"/>
<path d="M6460 5670 c-23 -7 -23 -8 -3 -9 12 -1 25 4 28 9 3 6 5 10 3 9 -2 -1
-14 -5 -28 -9z"/>
<path d="M772 5328 c-6 -18 -22 -62 -36 -97 -28 -71 -31 -81 -17 -81 12 0 38
68 56 143 15 66 13 91 -3 35z"/>
<path d="M522 5333 c-30 -6 -38 -28 -52 -143 -6 -52 -14 -105 -17 -117 -3 -13
-1 -23 5 -23 13 0 46 79 67 160 9 35 23 76 30 91 13 24 11 41 -4 38 -3 -1 -16
-4 -29 -6z"/>
<path d="M2957 3384 c-13 -14 -7 -65 8 -71 21 -7 23 -5 27 37 2 25 -1 35 -12
38 -9 1 -19 0 -23 -4z"/>
<path d="M770 2504 c0 -21 291 -414 307 -414 15 0 -98 152 -257 347 -5 6 -18
26 -30 45 -11 18 -20 28 -20 22z"/>
<path d="M7141 1183 c0 -6 -22 -37 -47 -68 -25 -31 -44 -59 -40 -62 3 -3 19 0
36 7 36 15 63 66 57 107 -2 15 -5 23 -6 16z"/>
<path d="M4625 1100 c-3 -5 -1 -10 4 -10 6 0 11 5 11 10 0 6 -2 10 -4 10 -3 0
-8 -4 -11 -10z"/>
<path d="M4650 1100 c0 -5 5 -10 11 -10 5 0 7 5 4 10 -3 6 -8 10 -11 10 -2 0
-4 -4 -4 -10z"/>
<path d="M6806 800 c-16 -8 -35 -24 -43 -36 -12 -18 -10 -22 17 -43 l30 -22
10 23 c6 13 21 40 35 60 24 37 24 37 3 35 -12 -1 -35 -8 -52 -17z"/>
<path d="M4178 223 c7 -3 16 -2 19 1 4 3 -2 6 -13 5 -11 0 -14 -3 -6 -6z"/>
<path d="M4313 223 c9 -2 23 -2 30 0 6 3 -1 5 -18 5 -16 0 -22 -2 -12 -5z"/>
<path d="M4268 213 c7 -3 16 -2 19 1 4 3 -2 6 -13 5 -11 0 -14 -3 -6 -6z"/>
</g>
</svg>
