<svg xmlns="http://www.w3.org/2000/svg" xmlns:xlink="http://www.w3.org/1999/xlink" width="1080" zoomAndPan="magnify" viewBox="0 0 810 809.999993" height="1080" preserveAspectRatio="xMidYMid meet" version="1.0"><defs><g/><clipPath id="ee372923e5"><path d="M 617 354 L 764.488281 354 L 764.488281 509 L 617 509 Z M 617 354 " clip-rule="nonzero"/></clipPath><clipPath id="7849c6b520"><path d="M 45.238281 562 L 241 562 L 241 652 L 45.238281 652 Z M 45.238281 562 " clip-rule="nonzero"/></clipPath></defs><g clip-path="url(#ee372923e5)"><path fill="#ffde59" d="M 764.90625 452.3125 C 739.007812 494.425781 656.035156 505.652344 632.722656 507.996094 C 631.394531 508.136719 631.683594 508.109375 626.574219 508.53125 L 617.574219 405.035156 C 641.988281 407.386719 666.128906 402.824219 688.671875 393.421875 C 689.574219 395.984375 693.117188 397.144531 695.472656 396.601562 C 698.265625 396.066406 700.582031 394.195312 702.777344 392.382812 C 703.730469 395.976562 704.707031 399.539062 706.074219 402.984375 C 702.601562 411.210938 716.46875 419.050781 720.65625 411.09375 C 721.070312 410.292969 721.339844 409.429688 721.457031 408.507812 C 726.03125 412.015625 732.714844 409.101562 732.476562 402.777344 C 738.445312 400.878906 741.175781 395.234375 739.78125 390.273438 C 742.070312 390.71875 744.710938 388.820312 745.304688 386.414062 C 746.6875 380.53125 739.65625 373.523438 735 367.703125 C 740.671875 363.773438 745.308594 360.488281 752.820312 354.757812 Z M 764.90625 452.3125 " fill-opacity="1" fill-rule="nonzero"/></g><path fill="#f69d31" d="M 170.480469 650.246094 L 233.109375 650.246094 L 233.109375 768.898438 L 170.480469 768.898438 Z M 170.480469 650.246094 " fill-opacity="1" fill-rule="nonzero"/><path fill="#f69d31" d="M 77.421875 650.246094 L 170.484375 650.246094 L 170.484375 768.898438 L 77.421875 768.898438 Z M 77.421875 650.246094 " fill-opacity="1" fill-rule="nonzero"/><path fill="#f69d31" d="M 234.601562 445.453125 L 276.972656 445.453125 L 276.972656 564.105469 L 234.601562 564.105469 Z M 234.601562 445.453125 " fill-opacity="1" fill-rule="nonzero"/><path fill="#f69d31" d="M 125.765625 445.453125 L 234.601562 445.453125 L 234.601562 564.105469 L 125.765625 564.105469 Z M 125.765625 445.453125 " fill-opacity="1" fill-rule="nonzero"/><path fill="#ffde59" d="M 182.386719 374.226562 L 239.253906 374.226562 L 239.253906 445.457031 L 182.386719 445.457031 Z M 182.386719 374.226562 " fill-opacity="1" fill-rule="nonzero"/><path fill="#ffde59" d="M 80.171875 374.226562 L 182.386719 374.226562 L 182.386719 445.457031 L 80.171875 445.457031 Z M 80.171875 374.226562 " fill-opacity="1" fill-rule="nonzero"/><path fill="#f69d31" d="M 504.160156 327.96875 C 328.027344 334.332031 383.84375 332.316406 372.628906 332.722656 C 343.167969 310.910156 329.277344 267.679688 322.023438 231.6875 C 324.734375 228.980469 323.40625 224.890625 320.300781 222.304688 C 320.121094 221.355469 319.972656 220.433594 319.824219 219.511719 C 325.34375 216.140625 323.390625 207.679688 317.71875 205.109375 C 317.6875 204.992188 317.6875 204.902344 317.6875 204.78125 C 320.121094 205.167969 322.023438 205.078125 323.6875 203.03125 C 325.914062 200.269531 325.914062 195.902344 323.6875 193.082031 C 321.90625 190.765625 318.816406 189.667969 315.996094 190.171875 C 313.292969 162.195312 313.738281 141.734375 313.738281 141.734375 L 452.78125 141.734375 C 444.25 188.023438 454.714844 232.871094 474.878906 275.402344 C 481.433594 290.273438 494.871094 313.363281 504.160156 327.96875 Z M 504.160156 327.96875 " fill-opacity="1" fill-rule="nonzero"/><path fill="#f9fefa" d="M 505.851562 212.117188 C 506.214844 210.175781 503.285156 209.667969 502.941406 211.582031 C 500.199219 225.796875 497.363281 241.726562 495.273438 252.585938 C 482.9375 237.394531 461.613281 228.230469 460.664062 227.828125 C 458.847656 227.066406 457.699219 229.792969 459.503906 230.5625 C 459.742188 230.660156 483.015625 240.664062 494.515625 256.472656 C 493.144531 263.402344 491.75 269.929688 490.171875 276.382812 C 483.289062 269.847656 476.53125 261.65625 467.898438 256.308594 C 467.484375 256.042969 466.976562 256.011719 466.5625 256.191406 C 467.039062 257.46875 467.574219 258.714844 468.105469 259.992188 C 471.820312 262.546875 475.203125 265.632812 478.589844 269.019531 C 478.558594 269.050781 478.558594 269.078125 478.53125 269.109375 L 474.878906 275.402344 C 475.324219 276.414062 475.796875 277.394531 476.304688 278.375 C 476.976562 278.039062 476.863281 277.714844 480.757812 271.15625 C 484.277344 274.675781 489.042969 279.710938 489.339844 279.710938 C 488.003906 284.820312 486.546875 289.898438 484.855469 295.183594 C 485.480469 296.371094 486.132812 297.558594 486.785156 298.746094 C 495.667969 272.023438 498.699219 249.285156 505.851562 212.117188 Z M 505.851562 212.117188 " fill-opacity="1" fill-rule="nonzero"/><path fill="#f9fefa" d="M 740.851562 373.40625 C 739.375 371.332031 732.863281 362.390625 731.703125 361.230469 C 730.871094 357.339844 730.011719 353.507812 729.0625 349.738281 C 730.125 348.078125 729.617188 347.175781 728.199219 340.886719 C 727.902344 339.671875 727.070312 338.75 726.03125 338.332031 C 719.824219 316.773438 711.242188 295.957031 698.710938 271.574219 C 703.464844 268.554688 713.039062 261.109375 710.679688 256.398438 C 681.367188 195.488281 640.710938 166.085938 582.886719 164.039062 C 583.007812 162.34375 582.472656 160.742188 581.195312 159.34375 C 578.820312 156.730469 575.34375 156.199219 571.898438 156.257812 C 572.433594 153.167969 572.644531 150.019531 572.496094 146.929688 C 581.582031 143.277344 590.667969 135.558594 597.46875 128.519531 C 603.734375 129.886719 610.65625 130.597656 616.03125 126.765625 C 621.375 122.964844 628.890625 112.332031 628.324219 103.871094 C 630.554688 102.472656 634.769531 99.238281 636.492188 93.832031 C 637.117188 93.742188 637.472656 93.386719 637.652344 92.941406 C 637.652344 92.941406 638.066406 91.960938 638.632812 90.179688 C 641.246094 82.132812 646.382812 61.582031 637.207031 44.503906 C 631.652344 34.140625 621.761719 26.921875 607.773438 23.0625 C 582.621094 16.082031 567.328125 24.902344 558.953125 33.515625 C 551.410156 41.238281 548.054688 50 547.042969 52.996094 C 528.511719 53.53125 516.007812 59.738281 513.007812 64.046875 C 511.613281 66.09375 512.328125 67.339844 513.8125 68.679688 C 519.601562 73.933594 528.898438 73.609375 532.789062 77.734375 C 529.582031 86.527344 528.839844 96.207031 528.421875 105.503906 C 527.859375 118.304688 528.125 132.617188 538.429688 140.488281 C 539.828125 141.554688 541.253906 142.507812 542.617188 143.398438 C 541.667969 148.445312 540.984375 151.890625 540.421875 154.742188 C 534.957031 154.773438 529.878906 155.632812 526.523438 160 C 491.65625 163.621094 467.574219 189.339844 453.257812 210.902344 C 453.464844 212.089844 453.703125 213.246094 453.941406 214.433594 C 454.328125 214.375 454.683594 214.136719 454.921875 213.78125 C 468.523438 192.875 491.597656 167.511719 525.035156 163.207031 C 524.355469 166.800781 526.820312 171.015625 530.027344 173.035156 C 538.046875 178.144531 560.230469 180.339844 575.34375 172.859375 C 578.285156 171.402344 580.453125 169.886719 581.96875 166.976562 C 637.859375 168.699219 677.445312 196.4375 706.222656 254.109375 C 690.5 249.542969 647.292969 265.25 637.503906 279.027344 C 635.957031 272.582031 634.265625 266.644531 632.484375 260.792969 C 636.523438 257.140625 660.460938 236.738281 688.34375 240.300781 C 689.148438 240.390625 689.917969 239.855469 690.007812 239.023438 C 690.128906 238.222656 689.535156 237.480469 688.730469 237.363281 C 661.171875 233.828125 637.949219 252.003906 631.503906 257.675781 C 629.335938 250.863281 626.472656 241.546875 624.554688 234.628906 C 624.554688 233.21875 621.585938 232.886719 621.585938 234.628906 C 611.160156 273.085938 630.136719 351.785156 636.96875 370.378906 C 573.890625 382.761719 515.355469 360.101562 476.6875 341.898438 L 470.542969 339.015625 C 472.144531 335.542969 473.628906 332.214844 475.027344 329.007812 L 471.757812 329.128906 C 470.363281 332.304688 468.847656 335.632812 467.246094 339.078125 C 466.890625 339.820312 467.214844 340.710938 467.957031 341.066406 L 471.96875 342.964844 C 450.519531 419.769531 413.203125 564.339844 401.851562 643.121094 C 401.285156 647.070312 402.238281 651.171875 404.671875 655.238281 C 408.949219 662.484375 415.394531 667.355469 422.640625 670.53125 C 422.460938 673.226562 422.164062 675.847656 422.164062 677.839844 C 422.046875 677.777344 421.898438 677.71875 421.75 677.691406 C 420.234375 677.542969 418.15625 677.332031 416.582031 678.996094 C 413.890625 681.824219 414.335938 681.9375 412.632812 686.925781 C 411.414062 690.402344 410.167969 693.996094 411.679688 697.648438 C 410.722656 697.808594 406.441406 701.078125 397.929688 702.695312 C 401.503906 697.484375 401.335938 688.109375 400.960938 681.730469 C 400.902344 678.492188 399.207031 676.324219 396.328125 675.730469 C 395.941406 675.671875 395.40625 675.609375 394.78125 675.730469 L 394.78125 656.722656 C 394.78125 655.890625 394.128906 655.238281 393.296875 655.238281 L 250.628906 655.238281 C 249.796875 655.238281 249.144531 655.890625 249.144531 656.722656 L 249.144531 768.890625 C 249.144531 769.722656 249.796875 770.378906 250.628906 770.378906 L 347.089844 770.378906 C 347.117188 770.378906 347.117188 770.378906 347.117188 770.378906 L 393.296875 770.378906 C 394.128906 770.378906 394.78125 769.722656 394.78125 768.890625 L 394.78125 749.675781 C 420.855469 748.292969 422.886719 757.902344 441.734375 757.902344 C 454.359375 757.902344 466.203125 753.527344 465.847656 740.859375 C 465.847656 740.382812 465.613281 739.996094 465.285156 739.730469 C 467.601562 737.5 469.144531 734.679688 469.144531 731.207031 C 469.175781 722.472656 464.039062 711.992188 458.902344 706.082031 C 459.265625 702.238281 458.386719 697.058594 457.652344 692.953125 C 457.265625 690.699219 456.019531 689.332031 454.832031 688.023438 C 454.238281 687.464844 454.265625 687.183594 453.496094 686.925781 C 454.746094 683.488281 455.519531 678.082031 456.4375 675.699219 C 456.464844 675.671875 456.4375 675.671875 456.464844 675.640625 C 462.730469 675.285156 468.078125 674.335938 471.460938 673.324219 C 478.472656 671.214844 483.964844 665.632812 485.835938 658.742188 C 534.914062 454.980469 531.28125 468.199219 538.074219 443.851562 C 536.472656 516.816406 537.183594 601.722656 543.125 663.167969 C 543.570312 667.683594 545.589844 671.691406 548.882812 674.453125 C 557.914062 682.085938 569.019531 687.015625 580.71875 688.765625 C 581.414062 692.363281 581.929688 695.140625 582.621094 697.378906 C 580.453125 697.765625 578.523438 698.480469 577.632812 700.140625 C 576.800781 701.65625 576.058594 703.050781 576.058594 705.191406 C 576.058594 710.113281 574.574219 715.289062 577.75 719.445312 C 577.019531 719.738281 573.785156 723.933594 565.84375 727.820312 C 567.914062 721.753906 565.234375 713.035156 563.257812 706.851562 C 562.308594 703.765625 560.082031 702.101562 557.230469 702.308594 C 554.9375 702.503906 553.332031 704.074219 553.785156 707.773438 C 554.464844 714.160156 556.417969 719.679688 558.980469 725.652344 C 556.121094 723.425781 549.550781 718.710938 545.589844 716.742188 C 545.558594 716.714844 545.5 716.683594 545.441406 716.683594 C 541.136719 714.484375 536.65625 712 532.96875 714.960938 C 528.875 718.234375 529.773438 723.898438 539.203125 727.613281 C 542.113281 728.738281 545.8125 730.828125 549.417969 732.1875 C 538.730469 732.949219 527.332031 728.472656 517.40625 733.550781 C 508.558594 738.144531 503.097656 750.910156 510.929688 761.4375 C 511.375 769.722656 513.753906 773.761719 521 778.425781 C 545.214844 793.976562 569.214844 770.792969 593.90625 770.378906 C 603.214844 770.183594 618.554688 774.777344 634.058594 764.824219 C 641.007812 760.339844 643.53125 754.160156 641.332031 746.976562 C 641.214844 746.558594 640.886719 746.234375 640.503906 746.054688 C 642.164062 743.292969 642.90625 740.175781 642.015625 736.820312 C 639.761719 728.382812 632.039062 719.59375 625.535156 715.226562 C 624.988281 711.601562 622.640625 706.539062 620.902344 702.875 C 619.671875 700.21875 616.023438 698.183594 615.320312 698.183594 C 615.503906 695.871094 615.433594 687.214844 614.960938 683.453125 C 618.316406 681.9375 621.703125 680.273438 625.148438 678.492188 C 631.535156 675.167969 635.660156 668.75 635.929688 661.652344 C 635.722656 651.867188 636.851562 705.945312 632.722656 507.996094 C 631.59375 508.117188 630.582031 508.207031 629.75 508.265625 L 632.960938 661.625 C 632.75 667.59375 629.21875 673.027344 623.78125 675.878906 C 612.023438 681.9375 601.210938 686.898438 588.828125 686.570312 C 574.871094 686.214844 561.359375 681.105469 550.785156 672.195312 C 548.113281 669.9375 546.449219 666.640625 546.09375 662.871094 C 545.796875 659.8125 545.5 656.664062 545.230469 653.457031 C 562.941406 660.390625 582.570312 660.441406 599.519531 654.40625 C 601.378906 653.761719 600.414062 650.96875 598.539062 651.617188 C 581.316406 657.703125 561.832031 657.167969 544.964844 650.160156 C 538.726562 573.808594 539.617188 467.726562 542.675781 391.105469 C 542.738281 389.175781 539.796875 388.96875 539.707031 390.988281 C 539.203125 403.90625 538.726562 417.6875 538.371094 432 C 526.160156 473.730469 522.417969 495.90625 482.957031 658 C 481.382812 663.792969 476.542969 668.691406 470.632812 670.472656 C 458.484375 674.125 420.945312 676.886719 407.226562 653.722656 C 405.117188 650.191406 404.316406 646.863281 404.789062 643.539062 C 405.207031 640.714844 405.652344 637.777344 406.128906 634.746094 C 417.648438 641.84375 430.804688 646.003906 444.347656 646.6875 L 444.4375 646.6875 C 445.210938 646.6875 445.863281 646.0625 445.921875 645.261719 C 445.953125 644.457031 445.328125 643.746094 444.496094 643.714844 C 431.042969 643.03125 417.976562 638.816406 406.632812 631.597656 C 419.460938 551.296875 454.710938 415.84375 474.699219 344.273438 L 475.414062 344.601562 C 523.789062 367.378906 573.980469 382.316406 626.960938 375.011719 L 627.613281 405.628906 C 628.59375 405.628906 629.574219 405.660156 630.582031 405.660156 C 629.574219 357.714844 630.074219 381.460938 629.929688 374.59375 C 633.046875 374.121094 636.167969 373.585938 639.285156 372.933594 C 640.234375 372.753906 640.710938 371.742188 640.355469 370.914062 C 634.53125 356.863281 615.675781 281.699219 623.246094 240.894531 C 624.644531 245.707031 626.070312 250.21875 627.433594 254.617188 C 637.472656 286.582031 634.933594 285.203125 636.761719 285.738281 C 636.789062 285.769531 636.847656 285.769531 636.878906 285.769531 C 639.820312 288.917969 648.789062 289.214844 660.28125 286.839844 C 671.0625 305.160156 682.464844 331.679688 691.375 352.5 C 691.253906 353.003906 691.226562 353.507812 691.316406 354.042969 C 691.613281 355.675781 691.878906 357.398438 692.207031 359.003906 C 692.503906 360.578125 693.808594 361.734375 695.382812 361.882812 C 696.71875 365.003906 697.996094 367.941406 699.183594 370.585938 C 695.085938 376.375 691.402344 382.613281 688.285156 388.046875 C 687.484375 389.445312 686.296875 391.523438 686.472656 393.808594 C 686.472656 393.957031 686.503906 394.105469 686.5625 394.253906 C 687.460938 399.644531 694.820312 402.152344 700.640625 396.660156 C 701.144531 396.183594 701.5 395.828125 701.828125 395.53125 C 704.265625 402 705.328125 418.402344 716.140625 415.695312 C 718.796875 415.03125 720.949219 412.835938 721.308594 411.390625 C 727.019531 415.320312 735.003906 410.378906 734.523438 403.195312 C 734.523438 403.195312 734.523438 403.222656 734.554688 403.222656 C 738.050781 403.222656 741.113281 399.289062 741.386719 395.828125 C 741.476562 394.609375 741.296875 393.421875 740.96875 392.292969 C 744.289062 392.957031 747.015625 389.875 746.96875 386.117188 C 746.902344 381.191406 743.71875 377.296875 740.851562 373.40625 Z M 635.425781 90.386719 L 620.605469 83.941406 C 633.40625 62.796875 630.109375 44.890625 627.167969 36.394531 C 641.808594 49.761719 641.691406 71.824219 635.425781 90.386719 Z M 561.0625 35.59375 C 572.464844 23.894531 587.90625 20.628906 607.003906 25.914062 C 612.941406 27.546875 618.050781 29.863281 622.386719 32.742188 C 623.070312 33.992188 633.878906 54.214844 619.328125 80.261719 C 604.0625 67.488281 571.484375 54.75 550.160156 53.085938 C 551.378906 49.761719 554.617188 42.21875 561.0625 35.59375 Z M 516.039062 66.300781 C 515.710938 66.300781 515.503906 66.214844 515.296875 66.003906 C 516.1875 63.777344 527.292969 56.292969 548.171875 55.9375 C 548.171875 55.9375 548.203125 55.90625 548.230469 55.90625 C 569.109375 56.976562 602.695312 69.953125 617.785156 82.84375 C 617.753906 82.933594 617.695312 83.023438 617.636719 83.109375 C 608.011719 85.8125 598.125 86.378906 588.234375 84.152344 C 563.496094 78.714844 553.28125 62.292969 533.382812 62.886719 C 520.640625 64.816406 517.375 66.300781 516.039062 66.300781 Z M 540.214844 138.109375 C 531.066406 131.132812 530.859375 117.679688 531.394531 105.621094 C 531.71875 97.929688 532.285156 89.972656 534.332031 82.578125 C 534.6875 82.992188 535.28125 83.199219 535.847656 83.050781 C 541.519531 81.476562 545.46875 83.140625 546.152344 83.140625 C 547.875 83.140625 548.203125 80.707031 546.566406 80.230469 C 542.796875 79.160156 538.816406 79.132812 535.074219 80.171875 L 535.046875 80.171875 C 535.460938 79.011719 535.996094 77.320312 537.332031 74.589844 C 542.292969 75.035156 547.488281 73.90625 552.242188 70.996094 C 564.535156 77.882812 574.097656 84.003906 587.730469 87.089844 C 587.550781 89.644531 588.324219 92.199219 590.996094 94.011719 C 599.132812 99.59375 587.015625 112.15625 589.511719 115.660156 C 590.964844 117.738281 595.390625 116.164062 595.746094 115.71875 C 597.886719 112.898438 598.210938 113.015625 599.550781 110.699219 C 602.164062 107.195312 604.359375 104.257812 607.597656 101.195312 C 611.367188 97.605469 614.8125 95.316406 619.386719 95.96875 C 624.523438 96.683594 627.40625 103.988281 623.753906 112.035156 C 620.902344 118.183594 615.914062 122.253906 609.378906 121.242188 C 605.636719 120.351562 603.824219 118.898438 603.527344 118.777344 C 602.933594 118.570312 602.28125 118.75 601.894531 119.222656 C 592.6875 130.121094 583.957031 137.695312 575.195312 142.386719 C 562.457031 149.21875 551.558594 146.753906 540.214844 138.109375 Z M 568.632812 157.800781 C 567.949219 161.691406 567.652344 162.730469 563.167969 164.632812 C 557.851562 166.886719 548.320312 165.640625 545.230469 163.5625 C 541.253906 160.859375 543.003906 157.472656 545.351562 145 C 554.261719 149.84375 561.832031 150.257812 569.554688 147.910156 C 569.671875 153.347656 568.78125 156.761719 568.632812 157.800781 Z M 579.710938 164.839844 C 579.472656 165.136719 579.234375 167.601562 574.007812 170.214844 C 564.058594 175.113281 551.199219 176.066406 537.808594 172.828125 C 535.667969 172.324219 533.441406 171.699219 531.601562 170.511719 C 529.433594 169.144531 527.886719 166.53125 527.859375 164.304688 C 527.859375 162.226562 530.292969 159.9375 532.640625 158.929688 C 534.777344 158.007812 537.152344 157.742188 539.976562 157.710938 C 539.320312 164.898438 544.339844 167.570312 551.46875 168.492188 C 555.773438 168.996094 560.320312 169.085938 564.355469 167.363281 C 569.730469 165.046875 570.683594 163.027344 571.394531 159.226562 C 574.128906 159.136719 577.15625 159.316406 579 161.335938 C 579.414062 161.78125 580.394531 162.878906 579.710938 164.839844 Z M 345.601562 767.40625 L 252.113281 767.40625 L 252.113281 658.207031 L 345.601562 658.207031 Z M 391.8125 767.40625 L 348.574219 767.40625 L 348.574219 658.207031 L 391.8125 658.207031 C 391.8125 696.582031 391.8125 725.910156 391.8125 767.40625 Z M 556.726562 707.417969 C 556.578125 706.082031 556.753906 705.636719 556.875 705.457031 C 556.992188 705.339844 557.171875 705.277344 557.4375 705.25 L 557.734375 705.25 C 558.625 705.25 559.785156 705.605469 560.4375 707.746094 C 562.046875 713.003906 564.753906 721.175781 563.140625 726.574219 C 562.917969 726.277344 562.894531 725.847656 562.1875 725.535156 C 558.609375 717.644531 557.273438 712.304688 556.726562 707.417969 Z M 544.757812 726.871094 C 538.078125 723.652344 536.886719 724.027344 534.421875 721.078125 C 533.292969 719.710938 533.441406 718.375 534.808594 717.277344 C 536.996094 715.4375 540.582031 717.566406 544.398438 719.476562 C 544.421875 719.476562 544.4375 719.476562 544.460938 719.476562 C 548.90625 721.734375 554.5625 726.132812 560.140625 730.136719 C 559.425781 730.375 558.714844 730.582031 558 730.789062 C 553.992188 731.265625 549.183594 728.976562 544.757812 726.871094 Z M 632.425781 762.328125 C 617.855469 771.679688 603.640625 767.21875 593.878906 767.40625 C 568.039062 767.902344 545.351562 790.554688 522.601562 775.929688 C 517.40625 772.574219 515.207031 769.929688 514.316406 765.210938 C 539.046875 787.945312 569.28125 762.363281 599.28125 760.308594 C 609.371094 759.621094 618.847656 760.433594 628.773438 755.796875 C 632.363281 754.132812 636.046875 751.636719 638.660156 748.609375 C 640.058594 754.132812 637.976562 758.734375 632.425781 762.328125 Z M 625.207031 718.671875 C 630.941406 722.949219 637.234375 730.402344 639.136719 737.589844 C 641.035156 744.6875 632.722656 750.6875 627.523438 753.121094 C 618.269531 757.425781 609.054688 756.667969 599.074219 757.339844 C 573.832031 759.074219 551.203125 775.679688 530.738281 770.703125 C 525.214844 769.367188 517.789062 765.476562 513.515625 759.984375 C 513.363281 759.527344 510.871094 757.011719 510.21875 752.648438 C 509.328125 746.113281 512.921875 739.222656 518.769531 736.195312 C 528.074219 731.421875 539.097656 736.367188 551.792969 734.976562 C 551.5 738.539062 551.914062 739.816406 555.894531 742.578125 C 556.132812 742.757812 556.429688 742.847656 556.726562 742.847656 C 558.21875 742.847656 558.746094 740.953125 557.585938 740.144531 C 554.585938 738.066406 554.46875 737.917969 554.792969 734.5625 C 555.378906 734.460938 560.28125 733.507812 561.832031 732.691406 C 561.980469 732.660156 562.128906 732.601562 562.277344 732.542969 C 563.613281 735.097656 565.546875 736.609375 568.722656 737.738281 C 570.640625 738.378906 571.53125 735.582031 569.703125 734.949219 C 567.386719 734.117188 566.019531 733.136719 565.039062 731.472656 C 572.597656 728.214844 579.34375 722.535156 579.742188 721.347656 C 586.757812 727.042969 598.605469 725.886719 607.121094 724.910156 C 607.417969 724.824219 622.769531 723.792969 625.207031 718.671875 Z M 612.109375 684.699219 C 612.347656 687.207031 612.664062 697.09375 612.230469 699.074219 C 610.773438 705.800781 598.273438 706.328125 592.214844 704.089844 C 586.640625 702.015625 586.476562 698.539062 585.859375 697.765625 C 584.875 695.144531 584.410156 692.058594 583.839844 689.214844 C 592.628906 690.011719 600.089844 689.628906 612.109375 684.699219 Z M 591.203125 706.882812 C 598.273438 709.507812 611.691406 708.855469 614.695312 701.003906 C 616.167969 701.941406 617.542969 702.675781 618.230469 704.152344 C 619 705.785156 621.347656 710.773438 622.269531 714.039062 C 623.1875 717.394531 623.039062 717.722656 619.980469 719.148438 C 615.5625 721.152344 610.097656 721.554688 606.796875 721.96875 C 598.421875 722.890625 589.75 723.839844 582.800781 719.890625 C 576.972656 716.539062 579.027344 711.753906 579.027344 705.191406 C 579.027344 703.792969 579.53125 702.875 580.246094 701.566406 C 580.660156 700.765625 582.382812 700.378906 583.691406 700.199219 C 585.371094 703.792969 587.625 705.574219 591.203125 706.882812 Z M 394.78125 679.441406 C 395.078125 678.550781 395.375 678.582031 395.761719 678.640625 C 396.683594 678.820312 397.929688 679.351562 397.988281 681.847656 C 398.304688 687.230469 398.539062 696.125 395.703125 700.707031 C 395.566406 700.347656 395.632812 699.894531 395.050781 699.457031 C 394.503906 696 394.960938 699.101562 394.78125 679.441406 Z M 453.257812 753.300781 C 447.792969 755.023438 440.695312 755.410156 434.28125 754.308594 C 421.980469 752.144531 417.449219 745.546875 394.78125 746.707031 L 394.78125 741.660156 C 412.460938 740.65625 418.839844 741.949219 427.957031 744.09375 C 436.210938 745.996094 443.089844 747.515625 451.445312 746.085938 C 455.308594 745.429688 459.523438 743.976562 462.851562 741.71875 C 462.730469 747.421875 459.523438 751.339844 453.257812 753.300781 Z M 457.683594 709.320312 C 461.988281 714.871094 466.207031 723.871094 466.175781 731.207031 C 466.148438 738.570312 456.582031 742.195312 450.941406 743.171875 C 440.8125 744.886719 432.316406 741.777344 422.371094 739.816406 C 412.988281 737.945312 403.304688 738.214844 394.78125 738.6875 L 394.78125 709.703125 C 395.585938 710.863281 396.683594 711.929688 398.167969 712.941406 C 399.863281 714.074219 401.441406 711.539062 399.859375 710.507812 C 397.8125 709.082031 396.773438 707.804688 396.269531 705.902344 C 405.25 704.660156 412.460938 700.789062 413.078125 700.023438 C 419.375 707.769531 429.871094 709.199219 439.597656 710.773438 C 444.140625 711.5 454.640625 712.75 457.683594 709.320312 Z M 425.519531 671.691406 C 434.914062 675.160156 443.75 675.789062 453.289062 675.789062 C 450.921875 683.683594 451.832031 688.710938 445.863281 690.222656 C 440.03125 691.679688 430.367188 688.5 427.0625 684.253906 C 424.214844 680.65625 425.285156 676.371094 425.519531 671.691406 Z M 442.65625 693.546875 C 446.421875 693.546875 449.933594 692.535156 452.160156 689.480469 C 453.496094 690.972656 454.449219 691.933594 454.742188 693.460938 C 455.605469 698.300781 456.019531 701.773438 456.050781 704.0625 C 456.050781 707.535156 455.839844 707.832031 452.515625 708.367188 C 447.972656 709.144531 442.984375 708.230469 439.03125 707.683594 C 430.71875 706.378906 422.105469 705.011719 416.433594 699.398438 C 412.71875 695.6875 413.847656 692.421875 415.453125 687.90625 C 417.054688 683.214844 416.429688 683.429688 418.75 681.046875 C 419.683594 680 421.289062 681.023438 422.371094 680.480469 C 422.640625 682.414062 423.320312 684.3125 424.71875 686.09375 C 428.578125 690.921875 436.945312 693.546875 442.65625 693.546875 Z M 693.570312 350.09375 C 683.859375 327.375 671.328125 298.390625 659.714844 280.273438 C 660.964844 274.542969 670.824219 268.8125 675.335938 267.296875 C 681.5 265.191406 686.964844 265.542969 692.976562 267.03125 C 706.996094 293.550781 716.351562 315.675781 722.972656 338.511719 C 722.574219 338.710938 720.171875 340.277344 716.527344 342.046875 C 709.84375 337.9375 701.707031 341.574219 699.660156 348.519531 C 695.15625 349.773438 694.785156 349.574219 693.570312 350.09375 Z M 718.457031 354.996094 C 718.457031 354.996094 718.457031 354.996094 718.429688 355.023438 C 716.0625 361.164062 707.601562 362.175781 703.730469 356.863281 C 697.988281 348.964844 707.949219 339.015625 715.816406 345.132812 C 718.160156 346.976562 720.242188 350.628906 718.457031 354.996094 Z M 693.125 396.777344 C 691.453125 396.648438 689.558594 395.234375 689.445312 393.570312 C 689.324219 392.292969 690.007812 390.988281 690.871094 389.53125 C 701.804688 370.472656 702.953125 371.621094 702.214844 370.140625 C 701.085938 367.554688 699.839844 364.707031 698.503906 361.617188 C 700.164062 361.410156 701.828125 361.140625 703.492188 360.816406 C 709.480469 365.554688 719.238281 363.441406 721.695312 354.578125 C 723.359375 353.746094 724.960938 352.828125 726.507812 351.816406 C 727.339844 355.203125 728.109375 358.648438 728.851562 362.152344 C 728.941406 362.539062 729.179688 362.835938 729.476562 363.070312 C 729.820312 363.753906 732.34375 366.546875 738.445312 375.128906 C 740.992188 378.601562 743.933594 382.175781 744 386.175781 C 744 387.511719 743.464844 388.703125 742.601562 389.207031 C 741.414062 389.890625 739.78125 388.671875 738.265625 387.039062 C 736.691406 384.773438 735.585938 383.527344 734.167969 381.542969 C 733.730469 380.863281 732.773438 380.691406 732.121094 381.128906 C 731.4375 381.601562 731.257812 382.523438 731.703125 383.207031 C 733.058594 385.21875 734.355469 387.160156 736.011719 388.96875 C 737.464844 391.136719 738.566406 393.335938 738.414062 395.621094 C 738.296875 397.402344 736.691406 399.839844 734.882812 400.195312 C 731.152344 401.023438 724.679688 387.875 723.03125 384.453125 C 722.675781 383.710938 721.785156 383.414062 721.042969 383.769531 C 720.300781 384.128906 720.003906 385.019531 720.359375 385.761719 C 722.582031 390.367188 727.007812 399.238281 731.347656 402.09375 C 732.164062 404.539062 730.832031 407.984375 728.257812 409.191406 C 720.175781 412.933594 716.957031 398.742188 713.589844 391.375 C 713.261719 390.632812 712.371094 390.304688 711.628906 390.632812 C 710.886719 390.988281 710.558594 391.847656 710.886719 392.589844 C 712.683594 396.414062 714.828125 405.015625 719.289062 409.726562 C 718.992188 409.847656 718.757812 410.054688 718.578125 410.351562 C 717.925781 411.570312 716.765625 412.488281 715.429688 412.816406 C 709.828125 414.261719 707.785156 406.648438 706.460938 400.9375 C 706.371094 400.5625 702.976562 388.78125 701.203125 391.253906 C 699.492188 394.140625 696.457031 397.058594 693.125 396.777344 Z M 693.125 396.777344 " fill-opacity="1" fill-rule="nonzero"/><path fill="#f9fefa" d="M 576.160156 185.214844 C 576.839844 184.757812 577.023438 183.835938 576.566406 183.15625 C 576.109375 182.472656 575.1875 182.292969 574.507812 182.746094 C 560.746094 191.964844 541.617188 191.8125 527.996094 182.382812 C 527.328125 181.917969 526.394531 182.082031 525.929688 182.757812 C 525.464844 183.433594 525.632812 184.359375 526.308594 184.824219 C 540.898438 194.929688 561.398438 195.09375 576.160156 185.214844 Z M 576.160156 185.214844 " fill-opacity="1" fill-rule="nonzero"/><path fill="#f9fefa" d="M 555.621094 110.921875 C 552.988281 109.847656 549.941406 108.867188 550.273438 106.003906 C 550.386719 105 551.253906 104.445312 552.019531 103.277344 C 554.960938 98.855469 556.953125 94.460938 558.285156 89.453125 C 558.496094 88.660156 558.023438 87.847656 557.234375 87.636719 C 556.429688 87.429688 555.621094 87.902344 555.414062 88.691406 C 554.167969 93.375 552.304688 97.488281 549.546875 101.632812 C 548.90625 102.609375 547.5625 103.613281 547.324219 105.660156 C 547.082031 107.726562 547.964844 109.847656 549.628906 111.191406 C 551.203125 112.46875 554.597656 113.773438 555.042969 113.773438 C 556.652344 113.773438 557.105469 111.550781 555.621094 110.921875 Z M 555.621094 110.921875 " fill-opacity="1" fill-rule="nonzero"/><path fill="#f9fefa" d="M 559.160156 130.03125 C 564.164062 128.738281 567.335938 126.4375 570.109375 122.082031 C 570.550781 121.390625 570.34375 120.472656 569.652344 120.03125 C 568.972656 119.597656 568.046875 119.792969 567.605469 120.484375 C 565.214844 124.234375 562.726562 126.042969 558.417969 127.15625 C 556.546875 127.640625 557.222656 130.527344 559.160156 130.03125 Z M 559.160156 130.03125 " fill-opacity="1" fill-rule="nonzero"/><path fill="#f9fefa" d="M 565.429688 109.65625 C 568.277344 109.894531 568.917969 106.628906 569.109375 104.351562 C 569.304688 102.074219 569.226562 98.746094 566.378906 98.507812 C 563.535156 98.265625 562.894531 101.53125 562.699219 103.8125 C 562.503906 106.089844 562.585938 109.414062 565.429688 109.65625 Z M 565.429688 109.65625 " fill-opacity="1" fill-rule="nonzero"/><path fill="#f9fefa" d="M 540.210938 92.414062 C 537.367188 92.171875 536.710938 95.433594 536.511719 97.714844 C 536.308594 99.996094 536.382812 103.316406 539.234375 103.558594 C 542.082031 103.800781 542.734375 100.539062 542.933594 98.257812 C 543.136719 95.976562 543.058594 92.65625 540.210938 92.414062 Z M 540.210938 92.414062 " fill-opacity="1" fill-rule="nonzero"/><path fill="#f9fefa" d="M 612.542969 113.027344 C 616.4375 111.757812 617.480469 109.351562 615.742188 105.640625 C 615.394531 104.894531 614.503906 104.574219 613.769531 104.925781 C 613.027344 105.273438 612.703125 106.15625 613.050781 106.898438 C 614.007812 108.9375 613.847656 109.480469 611.621094 110.207031 C 609.761719 110.808594 610.664062 113.648438 612.542969 113.027344 Z M 612.542969 113.027344 " fill-opacity="1" fill-rule="nonzero"/><path fill="#f9fefa" d="M 566.027344 88.160156 C 570.867188 88.355469 575.554688 90.199219 579.234375 93.347656 C 579.867188 93.882812 580.800781 93.804688 581.332031 93.183594 C 581.863281 92.5625 581.792969 91.625 581.167969 91.089844 C 576.984375 87.511719 571.648438 85.417969 566.148438 85.191406 C 565.304688 85.125 564.636719 85.792969 564.601562 86.613281 C 564.570312 87.433594 565.207031 88.125 566.027344 88.160156 Z M 566.027344 88.160156 " fill-opacity="1" fill-rule="nonzero"/><path fill="#f9fefa" d="M 589.027344 55.441406 C 594.695312 55.839844 600.042969 51.160156 600.953125 45.007812 C 601.863281 38.855469 598 33.535156 592.332031 33.140625 C 586.664062 32.746094 581.351562 37.425781 580.441406 43.578125 C 579.53125 49.730469 583.363281 55.046875 589.027344 55.441406 Z M 589.027344 55.441406 " fill-opacity="1" fill-rule="nonzero"/><path fill="#f9fefa" d="M 310.53125 663.164062 L 287.191406 663.164062 C 286.371094 663.164062 285.707031 663.828125 285.707031 664.648438 L 285.707031 675.9375 C 285.707031 676.757812 286.371094 677.421875 287.191406 677.421875 L 310.53125 677.421875 C 311.351562 677.421875 312.015625 676.757812 312.015625 675.9375 L 312.015625 664.648438 C 312.015625 663.828125 311.351562 663.164062 310.53125 663.164062 Z M 309.042969 674.453125 L 288.675781 674.453125 L 288.675781 666.132812 L 309.042969 666.132812 Z M 309.042969 674.453125 " fill-opacity="1" fill-rule="nonzero"/><path fill="#f9fefa" d="M 381.871094 662.5 L 358.535156 662.5 C 357.714844 662.5 357.050781 663.164062 357.050781 663.984375 L 357.050781 676.601562 C 357.050781 677.421875 357.714844 678.085938 358.535156 678.085938 L 381.871094 678.085938 C 382.691406 678.085938 383.355469 677.421875 383.355469 676.601562 L 383.355469 663.984375 C 383.355469 663.164062 382.691406 662.5 381.871094 662.5 Z M 380.386719 675.117188 L 360.019531 675.117188 L 360.019531 665.46875 L 380.386719 665.46875 Z M 380.386719 675.117188 " fill-opacity="1" fill-rule="nonzero"/><path fill="#f9fefa" d="M 167.636719 474.304688 L 192.734375 474.304688 C 193.558594 474.304688 194.222656 473.640625 194.222656 472.820312 L 194.222656 456.082031 C 194.222656 455.261719 193.558594 454.597656 192.734375 454.597656 L 167.636719 454.597656 C 166.8125 454.597656 166.148438 455.261719 166.148438 456.082031 L 166.148438 472.820312 C 166.148438 473.640625 166.8125 474.304688 167.636719 474.304688 Z M 169.121094 457.566406 L 191.25 457.566406 L 191.25 471.335938 L 169.121094 471.335938 Z M 169.121094 457.566406 " fill-opacity="1" fill-rule="nonzero"/><g clip-path="url(#7849c6b520)"><path fill="#f9fefa" d="M 239.25 562.621094 C 173.230469 562.621094 114.21875 562.621094 46.871094 562.621094 C 46.050781 562.621094 45.386719 563.285156 45.386719 564.109375 L 45.386719 650.242188 C 45.386719 651.066406 46.050781 651.730469 46.871094 651.730469 C 114.21875 651.730469 173.230469 651.730469 239.25 651.730469 C 240.074219 651.730469 240.738281 651.066406 240.738281 650.242188 L 240.738281 564.109375 C 240.738281 563.285156 240.074219 562.621094 239.25 562.621094 Z M 48.355469 565.59375 L 168.996094 565.59375 L 168.996094 648.757812 L 48.355469 648.757812 Z M 237.765625 648.757812 L 171.964844 648.757812 L 171.964844 565.59375 L 237.765625 565.59375 Z M 237.765625 648.757812 " fill-opacity="1" fill-rule="nonzero"/></g><path fill="#f9fefa" d="M 98.023438 617.429688 L 67.011719 617.429688 C 66.191406 617.429688 65.527344 618.09375 65.527344 618.914062 L 65.527344 634.871094 C 65.527344 635.691406 66.191406 636.355469 67.011719 636.355469 L 98.023438 636.355469 C 98.847656 636.355469 99.511719 635.691406 99.511719 634.871094 L 99.511719 618.914062 C 99.511719 618.09375 98.847656 617.429688 98.023438 617.429688 Z M 96.539062 633.386719 L 68.5 633.386719 L 68.5 620.398438 L 96.539062 620.398438 Z M 96.539062 633.386719 " fill-opacity="1" fill-rule="nonzero"/><path fill="#f9fefa" d="M 194.136719 588.496094 L 215.597656 588.496094 C 216.417969 588.496094 217.082031 587.832031 217.082031 587.011719 L 217.082031 572.617188 C 217.082031 571.796875 216.417969 571.132812 215.597656 571.132812 L 194.136719 571.132812 C 193.316406 571.132812 192.652344 571.796875 192.652344 572.617188 L 192.652344 587.011719 C 192.652344 587.832031 193.316406 588.496094 194.136719 588.496094 Z M 195.621094 574.101562 L 214.113281 574.101562 L 214.113281 585.527344 L 195.621094 585.527344 Z M 195.621094 574.101562 " fill-opacity="1" fill-rule="nonzero"/><path fill="#f9fefa" d="M 96.824219 434.226562 L 122.46875 434.226562 C 123.292969 434.226562 123.957031 433.5625 123.957031 432.742188 L 123.957031 419.546875 C 123.957031 418.726562 123.292969 418.0625 122.46875 418.0625 L 96.824219 418.0625 C 96.003906 418.0625 95.339844 418.726562 95.339844 419.546875 L 95.339844 432.742188 C 95.339844 433.5625 96.003906 434.226562 96.824219 434.226562 Z M 98.308594 421.035156 L 120.984375 421.035156 L 120.984375 431.257812 L 98.308594 431.257812 Z M 98.308594 421.035156 " fill-opacity="1" fill-rule="nonzero"/><path fill="#f9fefa" d="M 199.53125 394.902344 L 222.105469 394.902344 C 222.925781 394.902344 223.589844 394.238281 223.589844 393.417969 L 223.589844 381.800781 C 223.589844 380.980469 222.925781 380.316406 222.105469 380.316406 L 199.53125 380.316406 C 198.710938 380.316406 198.046875 380.980469 198.046875 381.800781 L 198.046875 393.417969 C 198.046875 394.238281 198.710938 394.902344 199.53125 394.902344 Z M 201.015625 383.289062 L 220.621094 383.289062 L 220.621094 391.929688 L 201.015625 391.929688 Z M 201.015625 383.289062 " fill-opacity="1" fill-rule="nonzero"/><path fill="#f9fefa" d="M 171.113281 667.933594 C 170.292969 667.933594 169.628906 668.597656 169.628906 669.417969 L 169.628906 768.898438 C 169.628906 769.71875 170.292969 770.382812 171.113281 770.382812 C 171.9375 770.382812 172.601562 769.71875 172.601562 768.898438 L 172.601562 669.417969 C 172.601562 668.597656 171.9375 667.933594 171.113281 667.933594 Z M 171.113281 667.933594 " fill-opacity="1" fill-rule="nonzero"/><path fill="#f9fefa" d="M 142.421875 657.488281 L 109.429688 657.488281 C 108.609375 657.488281 107.945312 658.152344 107.945312 658.972656 L 107.945312 675.199219 C 107.945312 676.019531 108.609375 676.683594 109.429688 676.683594 L 142.421875 676.683594 C 143.246094 676.683594 143.910156 676.019531 143.910156 675.199219 L 143.910156 658.972656 C 143.910156 658.152344 143.246094 657.488281 142.421875 657.488281 Z M 140.9375 673.714844 L 110.914062 673.714844 L 110.914062 660.457031 L 140.9375 660.457031 Z M 140.9375 673.714844 " fill-opacity="1" fill-rule="nonzero"/><path fill="#f9fefa" d="M 214.4375 657.488281 L 197.515625 657.488281 C 196.695312 657.488281 196.03125 658.152344 196.03125 658.972656 L 196.03125 675.199219 C 196.03125 676.019531 196.695312 676.683594 197.515625 676.683594 L 214.4375 676.683594 C 215.257812 676.683594 215.921875 676.019531 215.921875 675.199219 L 215.921875 658.972656 C 215.921875 658.152344 215.257812 657.488281 214.4375 657.488281 Z M 212.953125 673.714844 L 199 673.714844 L 199 660.457031 L 212.953125 660.457031 Z M 212.953125 673.714844 " fill-opacity="1" fill-rule="nonzero"/><path fill="#f9fefa" d="M 234.601562 538.921875 C 235.421875 538.921875 236.085938 538.257812 236.085938 537.4375 L 236.085938 452.695312 C 236.085938 451.875 235.421875 451.210938 234.601562 451.210938 C 233.78125 451.210938 233.117188 451.875 233.117188 452.695312 L 233.117188 537.4375 C 233.117188 538.257812 233.78125 538.921875 234.601562 538.921875 Z M 234.601562 538.921875 " fill-opacity="1" fill-rule="nonzero"/><path fill="#f9fefa" d="M 182.386719 443.183594 C 183.207031 443.183594 183.871094 442.519531 183.871094 441.699219 L 183.871094 381.40625 C 183.871094 380.585938 183.207031 379.921875 182.386719 379.921875 C 181.566406 379.921875 180.898438 380.585938 180.898438 381.40625 L 180.898438 441.699219 C 180.898438 442.519531 181.566406 443.183594 182.386719 443.183594 Z M 182.386719 443.183594 " fill-opacity="1" fill-rule="nonzero"/><path fill="#f9fefa" d="M 308.570312 219.410156 C 305.351562 222.484375 304.523438 227.859375 308.363281 231.351562 C 305.894531 232.964844 305.234375 236.421875 308.660156 239.945312 C 312.816406 244.28125 317.804688 245.558594 324.011719 246.183594 C 324.316406 246.210938 324.996094 246.300781 325.230469 246.183594 C 324.992188 245.203125 324.753906 244.222656 324.519531 243.242188 C 324.457031 243.242188 324.398438 243.210938 324.308594 243.210938 C 318.757812 242.675781 314.332031 241.550781 310.796875 237.867188 C 308.726562 235.792969 308.589844 233.609375 311.53125 233.351562 C 313.433594 234.207031 315.410156 234.832031 317.5 234.832031 C 320.085938 234.832031 322.648438 233.785156 324.144531 231.363281 C 326.183594 227.820312 324.265625 223.144531 320.664062 220.742188 C 325.011719 218.035156 326.339844 211.449219 321.617188 206.183594 C 326.613281 204.753906 328.664062 196.992188 324.863281 192.175781 C 320.359375 186.324219 310.1875 187.472656 308.625 196.050781 C 308.21875 198.273438 308.695312 200.589844 309.890625 202.488281 C 303.445312 205.941406 302.636719 214.78125 308.570312 219.410156 Z M 317.367188 191.535156 C 323.105469 191.535156 325.707031 198.160156 322.535156 202.09375 C 321.460938 203.417969 320.382812 203.707031 317.917969 203.316406 C 317.914062 203.316406 317.90625 203.3125 317.898438 203.3125 C 315.472656 202.96875 314.433594 202.355469 313.734375 203.554688 C 313.738281 203.535156 313.746094 203.511719 313.75 203.492188 C 313.886719 202.96875 313.726562 202.414062 313.335938 202.042969 C 309.675781 198.570312 311.585938 191.535156 317.367188 191.535156 Z M 312.6875 204.558594 C 313.074219 204.457031 313.398438 204.207031 313.59375 203.871094 C 313.339844 204.828125 313.9375 205.617188 314.742188 205.765625 L 315.210938 205.855469 C 317.898438 206.414062 319.382812 207.726562 320.769531 210.070312 C 322.382812 212.847656 321.648438 216.65625 319.0625 218.242188 C 318.179688 218.773438 317.09375 218.835938 315.328125 218.449219 C 313.457031 218.042969 312.777344 220.8125 314.613281 221.328125 C 316.324219 221.808594 318.527344 222.621094 319.832031 223.84375 C 324.601562 227.980469 321.351562 234.800781 312.394531 230.460938 C 311.789062 230.027344 309.082031 229.035156 308.800781 226.296875 C 308.589844 224.015625 309.90625 221.636719 311.929688 220.636719 C 313.066406 220.070312 313.019531 218.433594 311.855469 217.9375 C 309.191406 216.800781 307.332031 213.769531 307.527344 210.867188 C 307.699219 207.992188 309.917969 205.28125 312.6875 204.558594 Z M 312.6875 204.558594 " fill-opacity="1" fill-rule="nonzero"/><path fill="#f9fefa" d="M 619.691406 152.09375 C 618.882812 151.898438 618.09375 152.414062 617.914062 153.210938 C 617.730469 154.007812 618.230469 154.804688 619.03125 154.988281 C 648.023438 161.640625 674.859375 179.128906 692.648438 202.972656 C 692.941406 203.363281 693.386719 203.570312 693.839844 203.570312 C 695.042969 203.570312 695.769531 202.1875 695.027344 201.199219 C 676.824219 176.796875 649.363281 158.902344 619.691406 152.09375 Z M 619.691406 152.09375 " fill-opacity="1" fill-rule="nonzero"/><path fill="#f9fefa" d="M 655.945312 146.386719 C 667.472656 151.050781 677.503906 159.398438 684.183594 169.886719 C 685.222656 171.519531 687.75 169.960938 686.6875 168.292969 C 679.679688 157.285156 669.15625 148.527344 657.058594 143.636719 C 656.300781 143.332031 655.433594 143.695312 655.125 144.457031 C 654.816406 145.214844 655.1875 146.082031 655.945312 146.386719 Z M 655.945312 146.386719 " fill-opacity="1" fill-rule="nonzero"/><path fill="#f9fefa" d="M 726.210938 708.492188 C 727.308594 706.664062 726.964844 704.777344 725.570312 703.378906 C 723.324219 701.132812 718.390625 699.960938 710.484375 699.792969 C 694.464844 699.515625 678.140625 701.78125 664.714844 706.195312 C 663.933594 706.453125 663.507812 707.292969 663.765625 708.070312 C 664.027344 708.851562 664.863281 709.273438 665.640625 709.019531 C 685.359375 702.53125 718.492188 700.503906 723.46875 705.480469 C 724.785156 706.800781 722.390625 708.4375 720.777344 709.179688 C 719.230469 709.898438 719.914062 712.257812 721.625 711.996094 C 743.597656 708.628906 758.925781 716.953125 752.261719 722.484375 C 749.351562 724.933594 743.277344 726.304688 738.304688 727.230469 C 726.652344 729.464844 714.289062 730.816406 701.558594 731.246094 C 699.625 731.308594 699.679688 734.210938 701.609375 734.210938 C 708.90625 734.210938 725.351562 732.738281 738.855469 730.148438 C 744.507812 729.097656 750.753906 727.636719 754.164062 724.761719 C 761.566406 718.621094 753.382812 706.378906 726.210938 708.492188 Z M 726.210938 708.492188 " fill-opacity="1" fill-rule="nonzero"/><path fill="#f9fefa" d="M 287.636719 427.628906 C 288.292969 427.628906 288.894531 427.191406 289.074219 426.527344 L 309.109375 351.835938 C 309.320312 351.042969 308.851562 350.230469 308.058594 350.019531 C 307.261719 349.804688 306.453125 350.273438 306.238281 351.066406 L 286.203125 425.761719 C 285.949219 426.703125 286.660156 427.628906 287.636719 427.628906 Z M 287.636719 427.628906 " fill-opacity="1" fill-rule="nonzero"/><path fill="#f9fefa" d="M 292.816406 441.542969 C 293.015625 441.542969 293.21875 441.503906 293.410156 441.421875 C 309.84375 434.273438 328 430.308594 345.910156 429.957031 C 347.894531 429.917969 347.808594 426.882812 345.851562 426.988281 C 327.554688 427.347656 309.011719 431.394531 292.226562 438.695312 C 290.753906 439.335938 291.210938 441.542969 292.816406 441.542969 Z M 292.816406 441.542969 " fill-opacity="1" fill-rule="nonzero"/><path fill="#f9fefa" d="M 295.34375 456.496094 C 294.542969 456.460938 293.820312 457.058594 293.761719 457.878906 C 293.707031 458.695312 294.324219 459.402344 295.140625 459.460938 C 310.417969 460.496094 324.144531 469.28125 336.253906 477.03125 C 336.960938 477.480469 337.875 477.257812 338.304688 476.582031 C 338.746094 475.890625 338.546875 474.972656 337.855469 474.527344 C 325.445312 466.585938 311.378906 457.585938 295.34375 456.496094 Z M 295.34375 456.496094 " fill-opacity="1" fill-rule="nonzero"/><path fill="#f9fefa" d="M 142.421875 768.132812 L 67.835938 768.132812 C 67.015625 768.132812 66.351562 768.796875 66.351562 769.617188 C 66.351562 770.4375 67.015625 771.101562 67.835938 771.101562 L 142.421875 771.101562 C 143.246094 771.101562 143.910156 770.4375 143.910156 769.617188 C 143.910156 768.796875 143.246094 768.132812 142.421875 768.132812 Z M 142.421875 768.132812 " fill-opacity="1" fill-rule="nonzero"/><path fill="#f9fefa" d="M 487.933594 766.300781 C 474.769531 765.621094 468.734375 764.972656 462.613281 766.519531 C 458.578125 767.535156 454.828125 769.527344 450.964844 769.9375 C 447.457031 770.292969 443.394531 768.800781 442.59375 765.644531 C 442.347656 764.671875 441.238281 764.226562 440.390625 764.734375 C 432.105469 769.71875 421.257812 769.945312 412.761719 765.304688 C 412.042969 764.914062 411.140625 765.175781 410.746094 765.898438 C 410.351562 766.617188 410.617188 767.519531 411.339844 767.914062 C 420.226562 772.765625 431.453125 772.8125 440.40625 768.132812 C 442.398438 771.769531 447.207031 773.328125 451.277344 772.890625 C 455.652344 772.425781 459.347656 770.40625 463.339844 769.398438 C 468.769531 768.027344 473.847656 768.546875 487.78125 769.265625 C 489.71875 769.429688 489.921875 766.402344 487.933594 766.300781 Z M 487.933594 766.300781 " fill-opacity="1" fill-rule="nonzero"/><g fill="#f69d31" fill-opacity="1"><g transform="translate(381.136684, 263.528072)"><g><path d="M 22.875 -14.3125 C 22.875 -11.976562 22.519531 -9.222656 21.8125 -6.046875 C 21.101562 -2.878906 20.359375 -0.414062 19.578125 1.34375 C 18.441406 1.34375 17.257812 1.210938 16.03125 0.953125 C 14.800781 0.703125 13.550781 0.34375 12.28125 -0.125 C 13.050781 -2.882812 13.628906 -5.445312 14.015625 -7.8125 C 14.410156 -10.175781 14.609375 -12.332031 14.609375 -14.28125 C 14.609375 -15.414062 14.515625 -16.1875 14.328125 -16.59375 C 14.148438 -17 13.8125 -17.203125 13.3125 -17.203125 C 12.925781 -17.203125 12.488281 -16.976562 12 -16.53125 C 11.507812 -16.082031 11.015625 -15.429688 10.515625 -14.578125 C 10.460938 -13.460938 10.421875 -12.253906 10.390625 -10.953125 C 10.367188 -9.660156 10.359375 -8.238281 10.359375 -6.6875 C 10.359375 -5.925781 10.363281 -5.15625 10.375 -4.375 C 10.382812 -3.601562 10.421875 -2.800781 10.484375 -1.96875 C 9.816406 -1.738281 8.726562 -1.539062 7.21875 -1.375 C 5.71875 -1.207031 4.3125 -1.125 3 -1.125 C 2.78125 -4.320312 2.609375 -7.640625 2.484375 -11.078125 C 2.359375 -14.515625 2.296875 -17.722656 2.296875 -20.703125 C 2.296875 -23.066406 2.316406 -24.992188 2.359375 -26.484375 C 2.398438 -27.972656 2.476562 -29.289062 2.59375 -30.4375 C 3.175781 -30.769531 4.046875 -31.03125 5.203125 -31.21875 C 6.359375 -31.414062 7.628906 -31.515625 9.015625 -31.515625 C 9.765625 -31.515625 10.367188 -31.488281 10.828125 -31.4375 C 11.285156 -31.382812 11.753906 -31.300781 12.234375 -31.1875 C 11.929688 -29.738281 11.660156 -28.085938 11.421875 -26.234375 C 11.179688 -24.390625 10.976562 -22.328125 10.8125 -20.046875 C 11.5625 -20.929688 12.398438 -21.585938 13.328125 -22.015625 C 14.265625 -22.453125 15.273438 -22.671875 16.359375 -22.671875 C 18.585938 -22.671875 20.226562 -21.988281 21.28125 -20.625 C 22.34375 -19.257812 22.875 -17.15625 22.875 -14.3125 Z M 22.875 -14.3125 "/></g></g><g transform="translate(406.104964, 263.528072)"><g><path d="M 10.109375 -14.453125 C 10.441406 -14.359375 10.765625 -14.289062 11.078125 -14.25 C 11.398438 -14.207031 11.675781 -14.1875 11.90625 -14.1875 C 12.125 -14.1875 12.378906 -14.191406 12.671875 -14.203125 C 12.960938 -14.222656 13.164062 -14.25 13.28125 -14.28125 C 13.445312 -14.945312 13.578125 -15.570312 13.671875 -16.15625 C 13.765625 -16.738281 13.8125 -17.269531 13.8125 -17.75 C 13.8125 -18.332031 13.734375 -18.757812 13.578125 -19.03125 C 13.429688 -19.3125 13.207031 -19.453125 12.90625 -19.453125 C 12.34375 -19.453125 11.8125 -19 11.3125 -18.09375 C 10.8125 -17.1875 10.410156 -15.972656 10.109375 -14.453125 Z M 15.15625 -8.015625 C 16.207031 -7.816406 17.285156 -7.429688 18.390625 -6.859375 C 19.492188 -6.296875 20.390625 -5.648438 21.078125 -4.921875 C 20.859375 -4.203125 20.34375 -3.425781 19.53125 -2.59375 C 18.726562 -1.757812 17.769531 -1.0625 16.65625 -0.5 C 15.769531 -0.0507812 14.800781 0.285156 13.75 0.515625 C 12.707031 0.753906 11.617188 0.875 10.484375 0.875 C 7.585938 0.875 5.320312 0.0351562 3.6875 -1.640625 C 2.0625 -3.328125 1.25 -5.617188 1.25 -8.515625 C 1.25 -10.328125 1.535156 -12.101562 2.109375 -13.84375 C 2.679688 -15.582031 3.492188 -17.160156 4.546875 -18.578125 C 5.742188 -20.160156 7.117188 -21.394531 8.671875 -22.28125 C 10.234375 -23.175781 11.835938 -23.625 13.484375 -23.625 C 15.828125 -23.625 17.691406 -23.03125 19.078125 -21.84375 C 20.472656 -20.664062 21.171875 -19.09375 21.171875 -17.125 C 21.171875 -16.226562 21.078125 -15.242188 20.890625 -14.171875 C 20.710938 -13.097656 20.484375 -12.171875 20.203125 -11.390625 C 19.335938 -10.972656 18.269531 -10.660156 17 -10.453125 C 15.738281 -10.242188 14.234375 -10.140625 12.484375 -10.140625 C 11.984375 -10.140625 11.488281 -10.164062 11 -10.21875 C 10.507812 -10.28125 10.03125 -10.351562 9.5625 -10.4375 C 9.53125 -10.269531 9.515625 -10.082031 9.515625 -9.875 C 9.515625 -9.664062 9.515625 -9.351562 9.515625 -8.9375 C 9.515625 -7.257812 9.726562 -5.972656 10.15625 -5.078125 C 10.59375 -4.191406 11.21875 -3.75 12.03125 -3.75 C 12.550781 -3.75 13.117188 -4.179688 13.734375 -5.046875 C 14.347656 -5.910156 14.820312 -6.898438 15.15625 -8.015625 Z M 15.15625 -8.015625 "/></g></g></g></svg>